<svg width="16" height="16" viewBox="0 0 16 16" fill="none" xmlns="http://www.w3.org/2000/svg">
<g id="straighten">
<path id="Vector" d="M4 2.33331C4 2.06665 4.1 1.83331 4.3 1.63331C4.5 1.43331 4.73333 1.33331 5 1.33331L11 1.33331C11.2556 1.33331 11.4861 1.43331 11.6917 1.63331C11.8972 1.83331 12 2.06665 12 2.33331V13.6666C12 13.9333 11.8972 14.1666 11.6917 14.3666C11.4861 14.5666 11.2556 14.6666 11 14.6666H5C4.73333 14.6666 4.5 14.5666 4.3 14.3666C4.1 14.1666 4 13.9333 4 13.6666L4 2.33331ZM5 2.33331L5 13.6666H11V11.5H8V10.5H11V8.49998H8V7.49998H11V5.49998H8V4.49998H11V2.33331L5 2.33331ZM8 4.49998V5.49998V4.49998ZM8 7.49998V8.49998V7.49998ZM8 10.5V11.5V10.5Z" fill="#1D1D1D"/>
</g>
</svg>
