<svg width="17" height="16" viewBox="0 0 17 16" fill="none" xmlns="http://www.w3.org/2000/svg">
<g id="weight">
<path id="Vector" d="M4.11665 13H12.8833L11.8333 5.66669H5.16665L4.11665 13ZM8.49998 4.66669C8.78887 4.66669 9.02776 4.56946 9.21665 4.37502C9.40554 4.18058 9.49998 3.94446 9.49998 3.66669C9.49998 3.3778 9.40554 3.13891 9.21665 2.95002C9.02776 2.76113 8.78887 2.66669 8.49998 2.66669C8.2222 2.66669 7.98609 2.76113 7.79165 2.95002C7.5972 3.13891 7.49998 3.3778 7.49998 3.66669C7.49998 3.94446 7.5972 4.18058 7.79165 4.37502C7.98609 4.56946 8.2222 4.66669 8.49998 4.66669ZM10.2333 4.66669H11.8333C12.0889 4.66669 12.3111 4.74724 12.5 4.90835C12.6889 5.06946 12.8 5.2778 12.8333 5.53335L13.8666 12.8667C13.9111 13.1667 13.8361 13.4306 13.6416 13.6584C13.4472 13.8861 13.1944 14 12.8833 14H4.11665C3.80554 14 3.55276 13.8861 3.35831 13.6584C3.16387 13.4306 3.08887 13.1667 3.13331 12.8667L4.16665 5.53335C4.19998 5.2778 4.31109 5.06946 4.49998 4.90835C4.68887 4.74724 4.91109 4.66669 5.16665 4.66669H6.76665C6.67776 4.51113 6.61109 4.3528 6.56665 4.19169C6.5222 4.03058 6.49998 3.85558 6.49998 3.66669C6.49998 3.11113 6.69442 2.63891 7.08331 2.25002C7.4722 1.86113 7.94442 1.66669 8.49998 1.66669C9.05554 1.66669 9.52776 1.86113 9.91665 2.25002C10.3055 2.63891 10.5 3.11113 10.5 3.66669C10.5 3.85558 10.4778 4.03058 10.4333 4.19169C10.3889 4.3528 10.3222 4.51113 10.2333 4.66669ZM4.11665 13H12.8833H4.11665Z" fill="#1D1D1D"/>
</g>
</svg>
